<svg xmlns="http://www.w3.org/2000/svg" viewBox="0 0 1299 650" fill="#009aa1">
	<path
		d="M384.29,486.55,208.65,245V471.39a31,31,0,0,1-62.08,0V187.46c0-22,18-40.26,40.86-40.26a40.19,40.19,0,0,1,32.9,16.73L391.19,397.66V178.05a31,31,0,0,1,62.08,0V464.59c0,20.39-17,37.65-38.21,37.65C402.33,502.24,391.19,496.49,384.29,486.55Z"
	/>
	<g>
		<path
			d="M496.45,393.69V318.81c0-5.52,3.08-8.55,8.68-8.55H554a7.1,7.1,0,1,1,0,14.2H512.82v23.86H553a7.1,7.1,0,1,1,0,14.2H512.82V388H554a7.1,7.1,0,1,1,0,14.2H505.13C499.53,402.24,496.45,399.21,496.45,393.69Z"
		/>
		<path
			d="M612,394.93V324.46H590.21a7.1,7.1,0,1,1,0-14.2h60a7.1,7.1,0,1,1,0,14.2H628.42v70.47a8.19,8.19,0,0,1-16.38,0Z"
		/>
		<path
			d="M763.75,394.93V332.6L735.9,400.17a4.7,4.7,0,0,1-8.68,0L699.51,332.6v62.33a8.19,8.19,0,0,1-16.37,0V322.81a13.6,13.6,0,0,1,26.17-5l22.25,54.34L754,317.84a13.6,13.6,0,0,1,26.17,5v72.12a8.19,8.19,0,0,1-16.37,0Z"
		/>
		<path
			d="M893.06,394.79a8.37,8.37,0,0,1-8.4,8.28,8.24,8.24,0,0,1-7.7-5.24l-4.89-13.24H827.28l-4.9,13.24a8.24,8.24,0,0,1-7.7,5.24,8.37,8.37,0,0,1-8.39-8.28,9.79,9.79,0,0,1,.7-2.89l29.25-73.37a14.47,14.47,0,0,1,26.87,0l29.25,73.37A9.79,9.79,0,0,1,893.06,394.79Zm-26.17-24.41-17.22-46.47-17.21,46.47Z"
		/>
		<path
			d="M991.44,395.35a7.62,7.62,0,0,1-7.56,7.72,7.36,7.36,0,0,1-5.74-2.35L944,363.9l-8.25,8.69v22.34a8.19,8.19,0,0,1-16.38,0V317.56a8.19,8.19,0,0,1,16.38,0v36.83l39.32-42.48a7.53,7.53,0,0,1,5.74-2.48,7.69,7.69,0,0,1,7.7,7.45,6.71,6.71,0,0,1-2.1,5.1l-31.35,32.41,34.29,35.85A7.93,7.93,0,0,1,991.44,395.35Z"
		/>
		<path
			d="M1018.86,393.69V318.81c0-5.52,3.08-8.55,8.68-8.55h48.84a7.1,7.1,0,1,1,0,14.2h-41.14v23.86h40.16a7.1,7.1,0,1,1,0,14.2h-40.16V388h41.14a7.1,7.1,0,1,1,0,14.2h-48.84C1021.94,402.24,1018.86,399.21,1018.86,393.69Z"
		/>
		<path
			d="M1184.14,395.76a7.85,7.85,0,0,1-7.69,7.31,8.8,8.8,0,0,1-6.86-3.45l-22-31.72h-19v27a8.19,8.19,0,0,1-16.37,0V318.81c0-5.52,3.08-8.55,8.67-8.55h32.33c18.48,0,30.51,11.86,30.51,28.82,0,15-9.09,23.72-19.31,26.48l18.19,25.1A7.92,7.92,0,0,1,1184.14,395.76Zm-55.56-42.06H1151c9.24,0,16-5.8,16-14.62s-6.72-14.62-16-14.62h-22.39Z"
		/>
	</g>
	<path
		d="M409.55,89.56c-106.79,157.07-83.34,115.26,77,121.44a15.8,15.8,0,0,0,13.2-24.48L436,89.56A15.8,15.8,0,0,0,409.55,89.56Z"
	/>
	<path
		d="M189,559.44c106.79-157.07,83.34-115.26-77-121.44a15.8,15.8,0,0,0-13.2,24.48l63.76,97A15.8,15.8,0,0,0,189,559.44Z"
	/>
</svg>
